PathFileType	4	(X/Y/Z)	s07c0103.trc
DataRate	CameraRate	NumFrames	NumMarkers	Units	OrigDataRate	OrigDataStartFrame	OrigNumFrames
200	200	4	47	mm	200	750	2000
Frame#	Time	racr			lacr			c7			jug			rlel			rdr			llel			ldr			s2			lic			ric			lasi			rasi			rpsi			lpsi			rgt			lgt			rth1			rth2			rth3			rth4			rlfc			rmfc			rsh1			rsh2			rsh3			rsh4			rcal			rtoe			rmt5			lth1			lth2			lth4			lth3			llfc			lmfc			lsh1			lsh2			lsh3			lsh4			llmal			lcal			ltoe			lmt5			SBIKE			LBIKE			RBIKE			
		X1	Y1	Z1	X2	Y2	Z2	X3	Y3	Z3	X4	Y4	Z4	X5	Y5	Z5	X6	Y6	Z6	X7	Y7	Z7	X8	Y8	Z8	X9	Y9	Z9	X10	Y10	Z10	X11	Y11	Z11	X12	Y12	Z12	X13	Y13	Z13	X14	Y14	Z14	X15	Y15	Z15	X16	Y16	Z16	X17	Y17	Z17	X18	Y18	Z18	X19	Y19	Z19	X20	Y20	Z20	X21	Y21	Z21	X22	Y22	Z22	X23	Y23	Z23	X24	Y24	Z24	X25	Y25	Z25	X26	Y26	Z26	X27	Y27	Z27	X28	Y28	Z28	X29	Y29	Z29	X30	Y30	Z30	X31	Y31	Z31	X32	Y32	Z32	X33	Y33	Z33	X34	Y34	Z34	X35	Y35	Z35	X36	Y36	Z36	X37	Y37	Z37	X38	Y38	Z38	X39	Y39	Z39	X40	Y40	Z40	X41	Y41	Z41	X42	Y42	Z42	X43	Y43	Z43	X44	Y44	Z44	X45	Y45	Z45	X46	Y46	Z46	X47	Y47	Z47	
750	3.7500	468.555640	1397.612180	-65.824285	510.065641	1375.833258	-316.902059	449.986052	1430.587876	-200.293010	428.677580	1284.969469	-201.608617	502.227727	1075.676501	69.456674	715.228518	915.667847	-67.734953	512.224706	1095.142562	-529.914477	718.204011	910.570895	-427.126004	-136.354961	1189.809991	-270.320234	43.128992	1235.005559	-396.854538	15.517869	1249.878561	-108.652021	65.844332	1163.837187	-368.513841	35.141461	1198.800491	-120.913879	-115.698553	1233.696800	-221.140300	-92.445410	1237.340370	-326.284270	-32.267878	1117.909382	-64.675497	-13.546951	1081.634574	-426.917200	109.249985	1017.571138	-63.389752	184.667510	974.415523	-77.039512	230.769525	902.688425	-80.408876	206.794402	1000.118352	-93.071657	318.322189	806.319816	-114.845160	301.603092	784.919971	-215.473726	283.785988	668.983916	-83.157265	283.176163	580.805126	-99.981711	243.841387	503.783884	-89.963522	293.971566	580.504405	-138.720551	146.737137	309.371023	-107.937758	431.238700	368.737288	-128.573461	367.331099	315.200700	-56.887920	73.056623	999.334200	-428.717451	155.699802	968.085708	-427.973718	176.110185	996.292259	-418.938217	212.384043	899.337093	-424.579799	329.647396	769.255544	-392.507910	317.566309	751.108284	-293.857797	221.031924	666.299894	-409.614728	177.102851	594.029154	-392.095501	98.783156	550.012841	-397.197226	183.835841	591.904019	-350.313119	-1.672087	465.917598	-396.655078	-76.658769	482.528983	-360.895838	117.580203	267.865260	-359.933686	42.536833	305.794856	-421.102617	-262.182385	964.971127	-238.140930	-82.892117	78.776693	-436.769691	-83.071712	78.572329	-39.936061	
751	3.7550	469.686959	1398.833079	-66.255242	508.898717	1378.850762	-318.701476	449.399526	1433.533657	-201.447893	427.812244	1287.968288	-203.997906	503.142574	1076.742759	69.541687	715.622730	915.969976	-67.803328	512.626588	1096.333677	-529.192515	718.586574	910.687040	-426.788158	-135.963716	1189.704337	-268.534791	40.239881	1234.321145	-388.668522	16.935834	1248.435383	-106.904143	66.207058	1165.111085	-366.837543	36.050998	1197.439995	-119.262207	-115.125379	1232.939199	-219.076089	-92.251281	1237.628280	-324.385165	-31.633856	1115.967523	-63.331094	-12.177552	1083.113026	-426.009012	107.791944	1013.207398	-62.628590	182.112934	968.321062	-76.523513	226.602348	895.453276	-80.018374	204.753762	993.479716	-92.930112	311.293189	796.981938	-114.624523	293.600325	775.412746	-214.887074	278.401745	659.499749	-82.152332	279.075832	570.853301	-99.171547	240.680966	493.379831	-89.114647	290.207681	570.699513	-137.745377	146.687633	297.791500	-107.874514	430.528242	358.138568	-128.923866	366.976715	304.548634	-56.887620	75.141252	1002.277543	-429.383233	158.560179	972.997177	-428.622097	178.504080	1001.726691	-418.657950	217.138642	905.715136	-426.328760	336.565476	777.753280	-393.110032	325.030188	759.423501	-294.199132	228.066328	675.360284	-410.000500	183.323818	603.542813	-392.704595	104.602845	560.092077	-397.690970	190.246887	601.020914	-350.925813	3.733912	476.787768	-397.244880	-70.634227	495.599742	-361.081830	117.606483	275.938495	-360.197596	43.487701	315.687377	-421.227477	-262.296242	964.956294	-237.827875	-82.897357	78.826935	-436.746651	-83.056966	78.485861	-39.961553	
752	3.7600	470.865669	1400.191994	-66.954132	507.580264	1381.857949	-320.494976	448.753808	1436.562816	-202.664978	426.832647	1291.068126	-206.380358	504.301270	1077.910101	69.652757	716.065390	916.174955	-67.901193	513.242689	1097.647284	-528.264454	718.851583	910.788791	-426.511949	-135.361955	1189.883717	-266.724430	42.974442	1238.616192	-393.104094	18.316990	1247.295427	-105.244034	66.615382	1166.897132	-365.204810	37.079193	1196.453353	-117.414796	-114.790246	1232.959036	-216.726514	-92.139166	1238.653490	-322.549140	-31.020011	1114.440047	-62.166747	-10.869408	1085.169878	-425.210440	106.416362	1009.673393	-61.814955	179.479369	963.070625	-76.098515	222.242787	889.210732	-79.729218	202.543252	987.521682	-92.982974	304.493484	788.057773	-114.421054	284.265892	766.915404	-216.531450	273.327048	649.942482	-81.865696	275.114199	561.546791	-98.838592	237.763983	483.484765	-89.012816	286.480402	561.558514	-137.389042	145.626808	287.385956	-107.661087	429.817781	347.369157	-129.159032	366.287134	294.164443	-56.816075	77.222288	1005.734089	-429.577181	161.367262	978.250608	-428.695971	180.587136	1007.372938	-418.187316	221.059672	911.976950	-425.855315	343.207337	786.734796	-393.904692	332.149046	768.285865	-294.462499	234.586075	684.411125	-409.762515	189.689267	612.877245	-393.022056	110.397157	569.973419	-397.829363	196.524654	610.314742	-351.363849	9.426832	487.391117	-397.850865	-64.272037	508.390365	-361.946065	118.306581	284.142495	-360.505607	45.112469	325.416788	-421.260892	-262.320464	965.094084	-237.949687	-82.912490	78.857431	-436.737937	-82.919605	78.913048	-39.312059	
753	3.7650	472.094222	1401.612707	-67.724991	506.158797	1384.975593	-322.365307	448.180503	1439.585458	-203.912018	425.873871	1294.176404	-208.698346	505.769063	1079.370710	69.844597	716.398941	916.371620	-68.063165	513.878657	1099.035668	-527.441843	719.041036	910.895347	-426.187280	-135.147395	1190.722071	-264.772148	42.612274	1240.909493	-390.914712	19.019067	1246.898231	-103.023949	66.978899	1169.080120	-363.437509	38.237933	1195.854040	-115.730327	-114.288482	1233.400455	-214.231583	-92.097923	1239.614263	-320.498440	-30.519728	1113.371898	-61.029860	-9.648640	1087.764738	-424.520016	104.918935	1006.578957	-61.240067	176.769448	958.308204	-75.838496	217.818131	883.418028	-79.589239	200.280917	982.224907	-92.941347	297.888071	779.572293	-114.377860	278.077947	758.296667	-215.731926	268.056578	641.043927	-81.639667	271.069946	552.738339	-99.024569	234.942264	474.143615	-89.162603	282.182264	552.926667	-137.559362	143.988134	278.126226	-107.416125	428.454844	336.034899	-129.462812	365.083925	283.572746	-56.746290	79.403267	1009.685749	-429.226366	164.082722	983.995742	-428.343344	182.689924	1013.468041	-417.898114	225.166813	919.060929	-425.548827	349.781102	795.852510	-394.264162	338.958941	777.361897	-294.627273	241.270519	693.579386	-409.983119	195.895527	622.440905	-393.310227	116.433594	579.984559	-398.339875	202.678716	619.873574	-351.696554	15.176145	497.772333	-398.459652	-58.086239	520.439582	-361.993812	119.677592	292.698031	-360.822646	47.391135	335.373820	-421.389262	-262.299060	965.167357	-237.852533	-82.924052	78.883075	-436.747975	-82.919029	78.928338	-39.317490	
